HIERARCHY
ROOT Hips
{
	OFFSET 0.000000 0.000000 0.000000
	CHANNELS 6 Xposition Yposition Zposition Xrotation Yrotation Zrotation
	JOINT LeftUpLeg_virtual
	{
		OFFSET 0.000000 0.000000 0.000000
		CHANNELS 3 Xrotation Yrotation Zrotation
		JOINT LeftUpLeg
		{
			OFFSET 13.026900 -6.336304 -1.092800
			CHANNELS 3 Xrotation Yrotation Zrotation
			JOINT LeftLeg
			{
				OFFSET 0.524474 -46.096886 9.782700
				CHANNELS 3 Xrotation Yrotation Zrotation
				JOINT LeftFoot
				{
					OFFSET -0.524474 -53.427422 -12.948200
					CHANNELS 3 Xrotation Yrotation Zrotation
					JOINT LeftToeBase
					{
						OFFSET 0.192200 -14.009700 16.364100
						CHANNELS 3 Xrotation Yrotation Zrotation
						JOINT LeftToe_End
						{
							OFFSET -1.784700 -0.561700 9.474800
							CHANNELS 3 Xrotation Yrotation Zrotation
							End Site
							{
								OFFSET 0 0 0
							}
						}
					}
				}
			}
		}
	}
	JOINT RightUpLeg_virtual
	{
		OFFSET 0.000000 0.000000 0.000000
		CHANNELS 3 Xrotation Yrotation Zrotation
		JOINT RightUpLeg
		{
			OFFSET -12.883000 -6.336304 -1.092800
			CHANNELS 3 Xrotation Yrotation Zrotation
			JOINT RightLeg
			{
				OFFSET -0.524587 -46.096825 9.782800
				CHANNELS 3 Xrotation Yrotation Zrotation
				JOINT RightFoot
				{
					OFFSET 0.524587 -53.427383 -12.948300
					CHANNELS 3 Xrotation Yrotation Zrotation
					JOINT RightToeBase
					{
						OFFSET -0.192200 -14.009700 16.364100
						CHANNELS 3 Xrotation Yrotation Zrotation
						JOINT RightToe_End
						{
							OFFSET 1.784700 -0.561700 9.474800
							CHANNELS 3 Xrotation Yrotation Zrotation
							End Site
							{
								OFFSET 0 0 0
							}
						}
					}
				}
			}
		}
	}
	JOINT Spine_virtual
	{
		OFFSET 0.000000 0.000000 0.000000
		CHANNELS 3 Xrotation Yrotation Zrotation
		JOINT Spine
		{
			OFFSET 0.072000 7.257294 -0.789700
			CHANNELS 3 Xrotation Yrotation Zrotation
			JOINT Spine1
			{
				OFFSET 0.000000 12.508769 -0.658067
				CHANNELS 3 Xrotation Yrotation Zrotation
				JOINT Spine1_split
				{
					OFFSET 0.000000 12.508769 -0.658067
					CHANNELS 3 Xrotation Yrotation Zrotation
					JOINT Spine2
					{
						OFFSET 0.000000 12.508769 -0.658067
						CHANNELS 3 Xrotation Yrotation Zrotation
						JOINT Neck_virtual
						{
							OFFSET 0.000000 0.000000 0.000000
							CHANNELS 3 Xrotation Yrotation Zrotation
							JOINT Neck
							{
								OFFSET 0.000000 14.033295 7.520400
								CHANNELS 3 Xrotation Yrotation Zrotation
								JOINT Head
								{
									OFFSET 0.000000 8.198502 5.703100
									CHANNELS 3 Xrotation Yrotation Zrotation
									JOINT HeadTop_End
									{
										OFFSET 0.000000 17.760803 13.332701
										CHANNELS 3 Xrotation Yrotation Zrotation
										End Site
										{
											OFFSET 0 0 0
										}
									}
								}
							}
						}
						JOINT LeftShoulder_virtual
						{
							OFFSET 0.000000 0.000000 0.000000
							CHANNELS 3 Xrotation Yrotation Zrotation
							JOINT LeftShoulder
							{
								OFFSET 6.292450 5.785301 -0.669000
								CHANNELS 3 Xrotation Yrotation Zrotation
								JOINT LeftShoulder_split
								{
									OFFSET 6.292450 5.785301 -0.669000
									CHANNELS 3 Xrotation Yrotation Zrotation
									JOINT LeftArm
									{
										OFFSET 13.907140 -6.093903 1.965100
										CHANNELS 3 Xrotation Yrotation Zrotation
										JOINT LeftForeArm
										{
											OFFSET 34.140198 0.000000 0.000000
											CHANNELS 3 Xrotation Yrotation Zrotation
											JOINT LeftHand
											{
												OFFSET 40.960209 0.000000 0.000000
												CHANNELS 3 Xrotation Yrotation Zrotation
												End Site
												{
													OFFSET 0 0 0
												}
											}
										}
									}
								}
							}
						}
						JOINT RightShoulder_virtual
						{
							OFFSET 0.000000 0.000000 0.000000
							CHANNELS 3 Xrotation Yrotation Zrotation
							JOINT RightShoulder
							{
								OFFSET -6.292450 5.785301 -0.669000
								CHANNELS 3 Xrotation Yrotation Zrotation
								JOINT RightShoulder_split
								{
									OFFSET -6.292450 5.785301 -0.669000
									CHANNELS 3 Xrotation Yrotation Zrotation
									JOINT RightArm
									{
										OFFSET -13.907140 -6.093903 1.965100
										CHANNELS 3 Xrotation Yrotation Zrotation
										JOINT RightForeArm
										{
											OFFSET -34.140198 0.000000 0.000000
											CHANNELS 3 Xrotation Yrotation Zrotation
											JOINT RightHand
											{
												OFFSET -40.960209 0.000000 0.000000
												CHANNELS 3 Xrotation Yrotation Zrotation
												End Site
												{
													OFFSET 0 0 0
												}
											}
										}
									}
								}
							}
						}
					}
				}
			}
		}
	}
}
MOTION
Frames: 7
Frame Time: 0.03333333
-0.867419 119.490051 1.186985 0.000000 0.000000 0.000000 -1.932339 6.549294 -2.310192 -5.594937 12.683275 12.057155 8.179571 -4.159784 0.256035 -3.389287 -0.071688 -6.047966 0.841958 0.171617 -1.688424 0.000000 0.000000 0.000000 -2.083362 7.627887 -2.234010 -8.194501 -4.593683 0.694925 8.129437 3.748744 -2.113913 3.954601 0.463257 0.270383 -2.985834 0.005721 0.576070 0.000000 0.000000 0.000000 -1.881127 9.936698 -2.495419 9.650956 -0.366037 1.423999 3.167970 0.218136 -0.547607 0.301887 -2.312084 1.086678 0.000000 0.000000 0.000000 -4.304337 -0.024514 0.074178 -0.134999 0.299934 0.287677 6.270800 -3.703907 -1.332313 0.000000 0.000000 0.000000 -4.631566 -0.483843 0.161056 0.569449 -4.119191 -8.172035 -0.562539 -2.140819 1.107697 4.898851 1.296285 -72.318289 3.499842 -11.928910 1.378328 0.000000 0.000000 0.000000 -5.412539 -0.768970 0.184750 0.727471 8.067724 5.736540 -3.031026 -0.928514 -0.357955 3.609960 12.995991 77.063672 16.855975 19.136303 -4.852413 0.000000 0.000000 0.000000 
-0.523179 119.579422 0.916309 0.000000 0.000000 0.000000 -1.784694 6.697715 -2.301540 -5.354245 12.523553 11.896384 8.074539 -4.027634 0.229667 -3.616878 0.028033 -6.101884 0.852406 0.150313 -1.653923 0.000000 0.000000 0.000000 -1.848265 7.755293 -2.291727 -8.398184 -4.778950 0.453450 7.973595 3.874473 -2.148786 3.802620 0.708841 0.087980 -2.625004 0.030255 0.454657 0.000000 0.000000 0.000000 -1.682145 9.540156 -2.537074 9.490579 -0.333616 1.452630 3.121394 0.246176 -0.553277 0.237849 -2.345077 0.931709 0.000000 0.000000 0.000000 -4.205543 0.004545 0.071656 -0.079031 0.371445 0.269702 6.300390 -3.891110 -1.130151 0.000000 0.000000 0.000000 -4.645282 -0.462600 0.125827 0.614738 -4.046755 -8.042230 -0.636437 -2.016871 1.092778 4.724883 1.160759 -72.312968 3.454284 -12.057840 1.362908 0.000000 0.000000 0.000000 -5.448013 -0.741271 0.214171 0.703318 7.788368 5.581455 -3.062602 -0.870511 -0.353541 3.486653 13.363371 76.938154 16.925697 19.487547 -5.011822 0.000000 0.000000 0.000000 
-0.007992 119.502007 0.892632 0.000000 0.000000 0.000000 -1.767720 6.990310 -2.322205 -5.123406 12.235083 11.694763 8.151829 -3.892095 0.130568 -4.022816 0.188686 -6.160525 0.845403 0.133000 -1.588733 0.000000 0.000000 0.000000 -1.616310 7.886457 -2.416189 -8.188244 -4.906762 0.147004 7.575770 4.034218 -2.236092 3.220673 1.201311 -0.061410 -2.483844 0.065609 0.204444 0.000000 0.000000 0.000000 -1.521492 9.168189 -2.531691 9.298910 -0.235076 1.496758 3.117841 0.307655 -0.569012 0.245629 -2.259637 0.833205 0.000000 0.000000 0.000000 -4.074003 0.063623 0.064794 -0.151180 0.492885 0.158592 6.193128 -4.079719 -0.825878 0.000000 0.000000 0.000000 -4.586874 -0.413084 0.087244 0.673864 -3.953180 -7.812183 -0.753762 -2.019211 1.017392 4.516753 0.890697 -72.224722 3.493469 -12.151667 1.302035 0.000000 0.000000 0.000000 -5.384479 -0.679050 0.222625 0.714035 7.558510 5.356399 -3.007165 -0.979595 -0.348857 3.437071 13.814519 76.740413 17.062948 20.176637 -5.587120 0.000000 0.000000 0.000000 
0.626351 119.233017 1.211716 0.000000 0.000000 0.000000 -1.854264 7.268364 -2.358295 -4.885902 11.894626 11.443640 8.316801 -3.684755 -0.024469 -4.546001 0.410522 -6.135223 0.807879 0.119072 -1.503695 0.000000 0.000000 0.000000 -1.442088 7.932167 -2.528911 -7.644269 -5.079067 -0.256823 7.268904 4.145772 -2.278665 2.382275 1.797411 -0.266659 -2.504480 0.108727 -0.089802 0.000000 0.000000 0.000000 -1.486065 8.864220 -2.479485 9.102435 -0.111882 1.552985 3.160218 0.383287 -0.573794 0.289453 -2.101298 0.817307 0.000000 0.000000 0.000000 -3.944859 0.127061 0.075973 -0.314970 0.640713 -0.032147 5.967578 -4.271353 -0.452201 0.000000 0.000000 0.000000 -4.463125 -0.353066 0.063521 0.742322 -3.842600 -7.549073 -0.910483 -2.058734 0.925671 4.338393 0.504067 -72.156359 3.617813 -12.154608 1.201931 0.000000 0.000000 0.000000 -5.232632 -0.601480 0.225790 0.760588 7.397647 5.101858 -2.914738 -1.165151 -0.398452 3.450399 14.147345 76.541688 17.205238 20.997844 -6.477806 0.000000 0.000000 0.000000 
1.323067 118.873657 1.820370 0.000000 0.000000 0.000000 -2.002711 7.354486 -2.372543 -4.544591 11.464655 11.123950 8.454037 -3.327190 -0.202729 -5.195778 0.717261 -5.912550 0.704721 0.116202 -1.390717 0.000000 0.000000 0.000000 -1.400948 7.755735 -2.580276 -6.861781 -5.336887 -0.778500 6.998477 4.244505 -2.201522 1.472820 2.392655 -0.343446 -2.659475 0.131362 -0.357295 0.000000 0.000000 0.000000 -1.559994 8.660121 -2.416283 8.916870 0.014787 1.612897 3.231814 0.449860 -0.545286 0.351693 -1.914581 0.823209 0.000000 0.000000 0.000000 -3.838802 0.174510 0.122119 -0.515860 0.806029 -0.244340 5.673939 -4.452243 -0.061983 0.000000 0.000000 0.000000 -4.303100 -0.297498 0.075876 0.807195 -3.728283 -7.320604 -1.061479 -2.152746 0.841524 4.199625 0.042877 -72.171672 3.818823 -12.083338 1.082253 0.000000 0.000000 0.000000 -5.029873 -0.532312 0.243496 0.842096 7.332006 4.869332 -2.744153 -1.264400 -0.450811 3.420111 14.267840 76.427939 17.250201 21.764896 -7.537576 0.000000 0.000000 0.000000 
1.994321 118.570686 2.519531 0.000000 0.000000 0.000000 -2.209822 7.212378 -2.324943 -4.039885 10.899032 10.769409 8.559740 -2.830494 -0.325021 -5.858801 1.099549 -5.457874 0.588629 0.130742 -1.267444 0.000000 0.000000 0.000000 -1.606563 7.432667 -2.572711 -6.047762 -5.598757 -1.378052 6.864147 4.331204 -1.990278 0.681401 2.933680 -0.105571 -2.797933 0.130957 -0.561081 0.000000 0.000000 0.000000 -1.714453 8.569173 -2.400963 8.787061 0.119750 1.666095 3.292593 0.494844 -0.476325 0.462243 -1.634505 0.805215 0.000000 0.000000 0.000000 -3.761923 0.193791 0.204338 -0.702679 0.984151 -0.416129 5.341702 -4.615352 0.308044 0.000000 0.000000 0.000000 -4.146881 -0.257116 0.129875 0.862993 -3.635846 -7.195495 -1.172449 -2.311156 0.803875 4.076193 -0.418608 -72.298584 4.084199 -11.994050 0.955656 0.000000 0.000000 0.000000 -4.818247 -0.482242 0.285984 0.939057 7.378920 4.690492 -2.522190 -1.281317 -0.466446 3.243480 14.116470 76.445082 17.084089 22.267035 -8.586453 0.000000 0.000000 0.000000 
2.634500 118.376633 3.087360 0.000000 0.000000 0.000000 -2.459859 6.800548 -2.271141 -3.358200 10.198462 10.360153 8.723534 -2.296960 -0.341566 -6.444266 1.547561 -4.875792 0.553816 0.160011 -1.152269 0.000000 0.000000 0.000000 -1.991212 7.018518 -2.510089 -5.218088 -5.720787 -1.996667 6.763261 4.365749 -1.724688 -0.016050 3.373218 0.453295 -2.832872 0.122506 -0.661516 0.000000 0.000000 0.000000 -1.850771 8.530379 -2.423388 8.746267 0.196076 1.694796 3.291198 0.513727 -0.375029 0.487965 -1.311854 0.773897 0.000000 0.000000 0.000000 -3.723589 0.188490 0.309194 -0.852949 1.150330 -0.498282 4.984601 -4.770408 0.640354 0.000000 0.000000 0.000000 -4.038101 -0.227929 0.223402 0.896781 -3.576794 -7.161206 -1.175933 -2.439767 0.811623 3.929507 -0.812896 -72.501181 4.407545 -11.928968 0.809646 0.000000 0.000000 0.000000 -4.655558 -0.451750 0.351302 1.023039 7.502423 4.590240 -2.252314 -1.264695 -0.407800 2.890216 13.741884 76.572957 16.672907 22.387813 -9.497085 0.000000 0.000000 0.000000 
